<svg xmlns="http://www.w3.org/2000/svg" xmlns:xlink="http://www.w3.org/1999/xlink" width="305" zoomAndPan="magnify" viewBox="0 0 228.75 112.499997" height="150" preserveAspectRatio="xMidYMid meet" version="1.0"><defs><clipPath id="04795bf338"><path d="M 63.195312 2.332031 L 81.863281 2.332031 L 81.863281 24.734375 L 63.195312 24.734375 Z M 63.195312 2.332031 " clip-rule="nonzero"/></clipPath><clipPath id="65e79c234c"><path d="M 0.382812 13.449219 L 17.359375 13.449219 L 17.359375 38.839844 L 0.382812 38.839844 Z M 0.382812 13.449219 " clip-rule="nonzero"/></clipPath><clipPath id="1c9b76d331"><path d="M 0.382812 14 L 17 14 L 17 38.839844 L 0.382812 38.839844 Z M 0.382812 14 " clip-rule="nonzero"/></clipPath><clipPath id="ef4d58cf5a"><path d="M 0.382812 39.175781 L 17.359375 39.175781 L 17.359375 64.566406 L 0.382812 64.566406 Z M 0.382812 39.175781 " clip-rule="nonzero"/></clipPath><clipPath id="1460caa1ff"><path d="M 0.382812 39.175781 L 17 39.175781 L 17 64.566406 L 0.382812 64.566406 Z M 0.382812 39.175781 " clip-rule="nonzero"/></clipPath><clipPath id="2f2bb996d7"><path d="M 105.011719 2.332031 L 123 2.332031 L 123 24.734375 L 105.011719 24.734375 Z M 105.011719 2.332031 " clip-rule="nonzero"/></clipPath><clipPath id="1b5ea05a1b"><path d="M 105.011719 2.332031 L 123.679688 2.332031 L 123.679688 24.734375 L 105.011719 24.734375 Z M 105.011719 2.332031 " clip-rule="nonzero"/></clipPath><clipPath id="139aef664e"><path d="M 147 2.332031 L 165 2.332031 L 165 24.734375 L 147 24.734375 Z M 147 2.332031 " clip-rule="nonzero"/></clipPath><clipPath id="d0c81a85c3"><path d="M 211.140625 39.515625 L 228.121094 39.515625 L 228.121094 64.902344 L 211.140625 64.902344 Z M 211.140625 39.515625 " clip-rule="nonzero"/></clipPath><clipPath id="84b5f22a2c"><path d="M 211.140625 39.515625 L 228 39.515625 L 228 64.902344 L 211.140625 64.902344 Z M 211.140625 39.515625 " clip-rule="nonzero"/></clipPath><clipPath id="70fc9ac61f"><path d="M 211.140625 13.789062 L 228.121094 13.789062 L 228.121094 39.175781 L 211.140625 39.175781 Z M 211.140625 13.789062 " clip-rule="nonzero"/></clipPath><clipPath id="0e9270fee8"><path d="M 211.140625 14 L 228 14 L 228 39 L 211.140625 39 Z M 211.140625 14 " clip-rule="nonzero"/></clipPath></defs><g clip-path="url(#04795bf338)"><path fill="#fff9f9" d="M 65.585938 7.652344 L 64.847656 7.652344 C 64.253906 7.652344 63.773438 7.171875 63.773438 6.578125 L 63.773438 3.511719 C 63.773438 2.917969 64.253906 2.4375 64.847656 2.4375 L 80.011719 2.4375 C 80.605469 2.4375 81.085938 2.917969 81.085938 3.511719 L 81.085938 6.578125 C 81.085938 7.171875 80.605469 7.652344 80.011719 7.652344 L 79.269531 7.652344 C 81.65625 11.074219 81.664062 16.347656 79.777344 19.996094 C 78.125 23.195312 75.089844 24.890625 72.429688 24.890625 C 69.769531 24.890625 66.734375 23.195312 65.082031 19.996094 C 63.195312 16.347656 63.203125 11.074219 65.585938 7.652344 " fill-opacity="1" fill-rule="nonzero"/><path fill="#000000" d="M 72.015625 4.363281 C 72.136719 4.296875 72.277344 4.257812 72.429688 4.257812 C 72.578125 4.257812 72.71875 4.296875 72.839844 4.363281 C 73.097656 4.507812 73.273438 4.785156 73.273438 5.097656 C 73.273438 5.5625 72.894531 5.941406 72.429688 5.941406 C 71.964844 5.941406 71.585938 5.5625 71.585938 5.097656 C 71.585938 4.785156 71.761719 4.507812 72.015625 4.363281 Z M 72.429688 6.144531 C 73.003906 6.144531 73.472656 5.675781 73.472656 5.101562 C 73.472656 4.824219 73.363281 4.570312 73.1875 4.382812 C 73.148438 4.34375 73.109375 4.308594 73.066406 4.277344 C 73.015625 4.234375 72.953125 4.195312 72.894531 4.164062 C 72.753906 4.09375 72.59375 4.054688 72.425781 4.054688 C 72.257812 4.054688 72.101562 4.09375 71.960938 4.164062 C 71.898438 4.195312 71.839844 4.234375 71.785156 4.277344 C 71.746094 4.308594 71.703125 4.34375 71.667969 4.382812 C 71.492188 4.570312 71.382812 4.824219 71.382812 5.101562 C 71.386719 5.675781 71.851562 6.144531 72.429688 6.144531 Z M 79.21875 7.753906 C 79.3125 7.894531 79.402344 8.03125 79.484375 8.167969 C 81.457031 11.40625 81.542969 16.363281 79.6875 19.953125 C 78.167969 22.894531 75.316406 24.796875 72.429688 24.796875 C 69.542969 24.796875 66.695312 22.894531 65.171875 19.953125 C 63.3125 16.363281 63.398438 11.40625 65.371094 8.167969 C 65.457031 8.03125 65.542969 7.894531 65.640625 7.753906 Z M 63.871094 3.511719 C 63.871094 2.976562 64.308594 2.539062 64.847656 2.539062 L 80.011719 2.539062 C 80.550781 2.539062 80.988281 2.976562 80.988281 3.511719 L 80.988281 6.578125 C 80.988281 7.117188 80.546875 7.550781 80.011719 7.550781 L 64.847656 7.550781 C 64.308594 7.550781 63.875 7.113281 63.875 6.578125 Z M 63.625 14.03125 C 63.609375 16.175781 64.09375 18.308594 64.992188 20.042969 C 65.78125 21.574219 66.933594 22.847656 68.324219 23.730469 C 69.605469 24.546875 71.0625 24.996094 72.425781 24.996094 C 73.789062 24.996094 75.246094 24.546875 76.53125 23.730469 C 77.917969 22.847656 79.070312 21.574219 79.863281 20.042969 C 80.761719 18.308594 81.242188 16.171875 81.226562 14.03125 C 81.207031 11.789062 80.664062 9.730469 79.652344 8.066406 C 79.589844 7.960938 79.523438 7.859375 79.453125 7.753906 L 80.007812 7.753906 C 80.65625 7.753906 81.183594 7.226562 81.183594 6.578125 L 81.183594 3.511719 C 81.1875 2.867188 80.660156 2.335938 80.007812 2.335938 L 64.847656 2.335938 C 64.199219 2.335938 63.671875 2.867188 63.671875 3.511719 L 63.671875 6.578125 C 63.671875 7.226562 64.199219 7.753906 64.847656 7.753906 L 65.398438 7.753906 C 65.328125 7.855469 65.261719 7.960938 65.199219 8.0625 C 64.191406 9.726562 63.644531 11.789062 63.625 14.03125 " fill-opacity="1" fill-rule="nonzero"/></g><path stroke-linecap="butt" transform="matrix(0, 0.746681, -0.746681, 0, 93.842844, 0.00240402)" fill="none" stroke-linejoin="miter" d="M 0.00201188 0.501008 L 46.394793 0.501008 " stroke="#000000" stroke-width="1" stroke-opacity="1" stroke-miterlimit="4"/><path stroke-linecap="butt" transform="matrix(0, 0.746681, -0.746681, 0, 135.597965, 0.00240402)" fill="none" stroke-linejoin="miter" d="M 0.00201188 0.497405 L 46.394793 0.497405 " stroke="#000000" stroke-width="1" stroke-opacity="1" stroke-miterlimit="4"/><g clip-path="url(#65e79c234c)"><path fill="#000000" d="M 17.359375 13.464844 L 17.359375 39.164062 L 0.382812 39.164062 L 0.382812 13.464844 Z M 17.359375 13.464844 " fill-opacity="1" fill-rule="nonzero"/></g><g clip-path="url(#1c9b76d331)"><path fill="#fff9f9" d="M 16.765625 14.054688 L 16.765625 38.578125 L 0.972656 38.578125 L 0.972656 14.054688 Z M 16.765625 14.054688 " fill-opacity="1" fill-rule="nonzero"/></g><path fill="#000000" d="M 15 24.425781 C 14.738281 24.425781 14.519531 24.335938 14.335938 24.152344 C 14.152344 23.96875 14.058594 23.746094 14.058594 23.488281 C 14.058594 23.226562 14.152344 23.003906 14.335938 22.820312 C 14.519531 22.636719 14.738281 22.546875 15 22.546875 C 15.257812 22.546875 15.480469 22.636719 15.664062 22.820312 C 15.847656 23.003906 15.941406 23.226562 15.941406 23.488281 C 15.941406 23.746094 15.847656 23.96875 15.664062 24.152344 C 15.480469 24.335938 15.257812 24.425781 15 24.425781 Z M 15 24.425781 " fill-opacity="1" fill-rule="nonzero"/><path fill="#fff9f9" d="M 15 23.839844 C 14.902344 23.839844 14.816406 23.808594 14.75 23.738281 C 14.679688 23.667969 14.644531 23.585938 14.644531 23.488281 C 14.644531 23.390625 14.679688 23.304688 14.75 23.238281 C 14.816406 23.167969 14.902344 23.132812 15 23.132812 C 15.097656 23.132812 15.179688 23.167969 15.25 23.238281 C 15.320312 23.304688 15.355469 23.390625 15.355469 23.488281 C 15.355469 23.585938 15.320312 23.667969 15.25 23.738281 C 15.179688 23.808594 15.097656 23.839844 15 23.839844 Z M 15 23.839844 " fill-opacity="1" fill-rule="nonzero"/><path fill="#000000" d="M 15 29.730469 C 14.738281 29.730469 14.519531 29.640625 14.335938 29.457031 C 14.152344 29.273438 14.058594 29.050781 14.058594 28.789062 C 14.058594 28.53125 14.152344 28.308594 14.335938 28.125 C 14.519531 27.941406 14.738281 27.851562 15 27.851562 C 15.257812 27.851562 15.480469 27.941406 15.664062 28.125 C 15.847656 28.308594 15.941406 28.53125 15.941406 28.789062 C 15.941406 29.050781 15.847656 29.273438 15.664062 29.457031 C 15.480469 29.640625 15.257812 29.730469 15 29.730469 Z M 15 29.730469 " fill-opacity="1" fill-rule="nonzero"/><path fill="#fff9f9" d="M 15 29.144531 C 14.902344 29.144531 14.816406 29.109375 14.75 29.042969 C 14.679688 28.972656 14.644531 28.890625 14.644531 28.789062 C 14.644531 28.691406 14.679688 28.609375 14.75 28.539062 C 14.816406 28.472656 14.902344 28.4375 15 28.4375 C 15.097656 28.4375 15.179688 28.472656 15.25 28.539062 C 15.320312 28.609375 15.355469 28.691406 15.355469 28.789062 C 15.355469 28.890625 15.320312 28.972656 15.25 29.042969 C 15.179688 29.109375 15.097656 29.144531 15 29.144531 Z M 15 29.144531 " fill-opacity="1" fill-rule="nonzero"/><path fill="#000000" d="M 8.046875 35.035156 C 11.109375 35.035156 13.703125 31.382812 13.824219 26.667969 L 14.175781 26.667969 C 14.414062 26.90625 14.648438 27.023438 15.003906 27.023438 C 15.597656 27.023438 15.945312 26.550781 15.945312 26.082031 C 15.945312 25.609375 15.472656 25.140625 15.003906 25.140625 C 14.648438 25.140625 14.414062 25.261719 14.175781 25.496094 L 13.824219 25.496094 C 13.585938 21.015625 11.109375 17.480469 8.046875 17.480469 C 4.863281 17.480469 2.269531 21.371094 2.269531 26.199219 C 2.269531 31.03125 4.863281 35.035156 8.046875 35.035156 Z M 8.046875 35.035156 " fill-opacity="1" fill-rule="nonzero"/><path fill="#fff9f9" d="M 2.859375 26.3125 C 2.859375 21.832031 5.21875 18.179688 8.046875 18.179688 C 10.757812 18.179688 12.996094 21.359375 13.230469 25.605469 L 12.292969 25.605469 C 11.9375 25.605469 11.699219 25.839844 11.699219 26.195312 C 11.699219 26.550781 11.9375 26.785156 12.292969 26.785156 L 13.230469 26.785156 C 13.113281 31.03125 10.753906 34.566406 8.046875 34.566406 C 5.101562 34.449219 2.859375 30.796875 2.859375 26.3125 Z M 2.859375 26.3125 " fill-opacity="1" fill-rule="nonzero"/><g clip-path="url(#ef4d58cf5a)"><path fill="#000000" d="M 17.359375 39.191406 L 17.359375 64.890625 L 0.382812 64.890625 L 0.382812 39.191406 Z M 17.359375 39.191406 " fill-opacity="1" fill-rule="nonzero"/></g><g clip-path="url(#1460caa1ff)"><path fill="#fff9f9" d="M 16.765625 39.78125 L 16.765625 64.304688 L 0.972656 64.304688 L 0.972656 39.78125 Z M 16.765625 39.78125 " fill-opacity="1" fill-rule="nonzero"/></g><path fill="#000000" d="M 15 50.152344 C 14.738281 50.152344 14.519531 50.0625 14.335938 49.878906 C 14.152344 49.695312 14.058594 49.472656 14.058594 49.214844 C 14.058594 48.953125 14.152344 48.730469 14.335938 48.546875 C 14.519531 48.363281 14.738281 48.273438 15 48.273438 C 15.257812 48.273438 15.480469 48.363281 15.664062 48.546875 C 15.847656 48.730469 15.941406 48.953125 15.941406 49.214844 C 15.941406 49.472656 15.847656 49.695312 15.664062 49.878906 C 15.480469 50.0625 15.257812 50.152344 15 50.152344 Z M 15 50.152344 " fill-opacity="1" fill-rule="nonzero"/><path fill="#fff9f9" d="M 15 49.566406 C 14.902344 49.566406 14.816406 49.535156 14.75 49.464844 C 14.679688 49.394531 14.644531 49.3125 14.644531 49.214844 C 14.644531 49.117188 14.679688 49.03125 14.75 48.964844 C 14.816406 48.894531 14.902344 48.859375 15 48.859375 C 15.097656 48.859375 15.179688 48.894531 15.25 48.964844 C 15.320312 49.03125 15.355469 49.117188 15.355469 49.214844 C 15.355469 49.3125 15.320312 49.394531 15.25 49.464844 C 15.179688 49.535156 15.097656 49.566406 15 49.566406 Z M 15 49.566406 " fill-opacity="1" fill-rule="nonzero"/><path fill="#000000" d="M 15 55.457031 C 14.738281 55.457031 14.519531 55.367188 14.335938 55.183594 C 14.152344 55 14.058594 54.777344 14.058594 54.515625 C 14.058594 54.257812 14.152344 54.035156 14.335938 53.851562 C 14.519531 53.667969 14.738281 53.578125 15 53.578125 C 15.257812 53.578125 15.480469 53.667969 15.664062 53.851562 C 15.847656 54.035156 15.941406 54.257812 15.941406 54.515625 C 15.941406 54.777344 15.847656 55 15.664062 55.183594 C 15.480469 55.367188 15.257812 55.457031 15 55.457031 Z M 15 55.457031 " fill-opacity="1" fill-rule="nonzero"/><path fill="#fff9f9" d="M 15 54.871094 C 14.902344 54.871094 14.816406 54.835938 14.75 54.769531 C 14.679688 54.699219 14.644531 54.617188 14.644531 54.515625 C 14.644531 54.417969 14.679688 54.335938 14.75 54.265625 C 14.816406 54.199219 14.902344 54.164062 15 54.164062 C 15.097656 54.164062 15.179688 54.199219 15.25 54.265625 C 15.320312 54.335938 15.355469 54.417969 15.355469 54.515625 C 15.355469 54.617188 15.320312 54.699219 15.25 54.769531 C 15.179688 54.835938 15.097656 54.871094 15 54.871094 Z M 15 54.871094 " fill-opacity="1" fill-rule="nonzero"/><path fill="#000000" d="M 8.046875 60.761719 C 11.109375 60.761719 13.703125 57.109375 13.824219 52.394531 L 14.175781 52.394531 C 14.414062 52.632812 14.648438 52.75 15.003906 52.75 C 15.597656 52.75 15.945312 52.277344 15.945312 51.808594 C 15.945312 51.335938 15.472656 50.867188 15.003906 50.867188 C 14.648438 50.867188 14.414062 50.988281 14.175781 51.222656 L 13.824219 51.222656 C 13.585938 46.742188 11.109375 43.207031 8.046875 43.207031 C 4.863281 43.207031 2.269531 47.097656 2.269531 51.925781 C 2.269531 56.757812 4.863281 60.761719 8.046875 60.761719 Z M 8.046875 60.761719 " fill-opacity="1" fill-rule="nonzero"/><path fill="#fff9f9" d="M 2.859375 52.039062 C 2.859375 47.558594 5.21875 43.90625 8.046875 43.90625 C 10.757812 43.90625 12.996094 47.085938 13.230469 51.332031 L 12.292969 51.332031 C 11.9375 51.332031 11.699219 51.566406 11.699219 51.921875 C 11.699219 52.277344 11.9375 52.511719 12.292969 52.511719 L 13.230469 52.511719 C 13.113281 56.757812 10.753906 60.292969 8.046875 60.292969 C 5.101562 60.175781 2.859375 56.523438 2.859375 52.039062 Z M 2.859375 52.039062 " fill-opacity="1" fill-rule="nonzero"/><g clip-path="url(#2f2bb996d7)"><path fill="#fff9f9" d="M 107.402344 7.652344 L 106.664062 7.652344 C 106.070312 7.652344 105.585938 7.171875 105.585938 6.578125 L 105.585938 3.511719 C 105.585938 2.917969 106.070312 2.4375 106.664062 2.4375 L 121.828125 2.4375 C 122.421875 2.4375 122.902344 2.917969 122.902344 3.511719 L 122.902344 6.578125 C 122.902344 7.171875 122.421875 7.652344 121.828125 7.652344 L 121.085938 7.652344 C 123.472656 11.074219 123.480469 16.347656 121.589844 19.996094 C 119.9375 23.195312 116.90625 24.890625 114.246094 24.890625 C 111.582031 24.890625 108.550781 23.195312 106.898438 19.996094 C 105.011719 16.347656 105.015625 11.074219 107.402344 7.652344 " fill-opacity="1" fill-rule="nonzero"/></g><g clip-path="url(#1b5ea05a1b)"><path fill="#000000" d="M 113.832031 4.363281 C 113.953125 4.296875 114.09375 4.257812 114.246094 4.257812 C 114.394531 4.257812 114.535156 4.296875 114.65625 4.363281 C 114.914062 4.507812 115.085938 4.785156 115.085938 5.097656 C 115.085938 5.5625 114.707031 5.941406 114.246094 5.941406 C 113.78125 5.941406 113.402344 5.5625 113.402344 5.097656 C 113.402344 4.785156 113.574219 4.507812 113.832031 4.363281 Z M 114.246094 6.144531 C 114.820312 6.144531 115.289062 5.675781 115.289062 5.101562 C 115.289062 4.824219 115.179688 4.570312 115 4.382812 C 114.964844 4.34375 114.925781 4.308594 114.882812 4.277344 C 114.828125 4.234375 114.769531 4.195312 114.707031 4.164062 C 114.566406 4.09375 114.410156 4.054688 114.242188 4.054688 C 114.074219 4.054688 113.917969 4.09375 113.777344 4.164062 C 113.714844 4.195312 113.65625 4.234375 113.601562 4.277344 C 113.558594 4.308594 113.519531 4.34375 113.484375 4.382812 C 113.308594 4.570312 113.195312 4.824219 113.195312 5.101562 C 113.199219 5.675781 113.667969 6.144531 114.246094 6.144531 Z M 121.03125 7.753906 C 121.128906 7.894531 121.21875 8.03125 121.300781 8.167969 C 123.273438 11.40625 123.359375 16.363281 121.503906 19.953125 C 119.984375 22.894531 117.132812 24.796875 114.246094 24.796875 C 111.355469 24.796875 108.507812 22.894531 106.988281 19.953125 C 105.128906 16.363281 105.214844 11.40625 107.1875 8.167969 C 107.269531 8.03125 107.359375 7.894531 107.457031 7.753906 Z M 105.6875 3.511719 C 105.6875 2.976562 106.125 2.539062 106.664062 2.539062 L 121.828125 2.539062 C 122.367188 2.539062 122.800781 2.976562 122.800781 3.511719 L 122.800781 6.578125 C 122.800781 7.117188 122.363281 7.550781 121.828125 7.550781 L 106.664062 7.550781 C 106.125 7.550781 105.6875 7.113281 105.6875 6.578125 Z M 105.441406 14.03125 C 105.425781 16.175781 105.910156 18.308594 106.804688 20.042969 C 107.597656 21.574219 108.75 22.847656 110.136719 23.730469 C 111.421875 24.546875 112.878906 24.996094 114.242188 24.996094 C 115.605469 24.996094 117.0625 24.546875 118.347656 23.730469 C 119.734375 22.847656 120.886719 21.574219 121.675781 20.042969 C 122.574219 18.308594 123.058594 16.171875 123.042969 14.03125 C 123.023438 11.789062 122.480469 9.730469 121.46875 8.066406 C 121.40625 7.960938 121.339844 7.859375 121.269531 7.753906 L 121.824219 7.753906 C 122.472656 7.753906 122.996094 7.226562 122.996094 6.578125 L 122.996094 3.511719 C 123.003906 2.867188 122.472656 2.335938 121.824219 2.335938 L 106.664062 2.335938 C 106.015625 2.335938 105.484375 2.867188 105.484375 3.511719 L 105.484375 6.578125 C 105.484375 7.226562 106.015625 7.753906 106.660156 7.753906 L 107.214844 7.753906 C 107.144531 7.855469 107.078125 7.960938 107.015625 8.0625 C 106.003906 9.726562 105.460938 11.789062 105.441406 14.03125 " fill-opacity="1" fill-rule="nonzero"/></g><g clip-path="url(#139aef664e)"><path fill="#fff9f9" d="M 149.230469 7.652344 L 148.488281 7.652344 C 147.894531 7.652344 147.414062 7.171875 147.414062 6.578125 L 147.414062 3.511719 C 147.414062 2.917969 147.894531 2.4375 148.488281 2.4375 L 163.652344 2.4375 C 164.246094 2.4375 164.730469 2.917969 164.730469 3.511719 L 164.730469 6.578125 C 164.730469 7.171875 164.246094 7.652344 163.652344 7.652344 L 162.910156 7.652344 C 165.296875 11.074219 165.304688 16.347656 163.417969 19.996094 C 161.765625 23.195312 158.730469 24.890625 156.070312 24.890625 C 153.410156 24.890625 150.375 23.195312 148.722656 19.996094 C 146.835938 16.347656 146.84375 11.074219 149.230469 7.652344 " fill-opacity="1" fill-rule="nonzero"/><path fill="#000000" d="M 155.660156 4.363281 C 155.78125 4.296875 155.921875 4.257812 156.070312 4.257812 C 156.21875 4.257812 156.359375 4.296875 156.480469 4.363281 C 156.738281 4.507812 156.914062 4.785156 156.914062 5.097656 C 156.914062 5.5625 156.535156 5.941406 156.070312 5.941406 C 155.605469 5.941406 155.226562 5.5625 155.226562 5.097656 C 155.226562 4.785156 155.402344 4.507812 155.660156 4.363281 Z M 156.070312 6.144531 C 156.648438 6.144531 157.113281 5.675781 157.113281 5.101562 C 157.113281 4.824219 157.007812 4.570312 156.828125 4.382812 C 156.789062 4.34375 156.75 4.308594 156.707031 4.277344 C 156.65625 4.234375 156.597656 4.195312 156.535156 4.164062 C 156.394531 4.09375 156.234375 4.054688 156.070312 4.054688 C 155.902344 4.054688 155.742188 4.09375 155.601562 4.164062 C 155.539062 4.195312 155.484375 4.234375 155.429688 4.277344 C 155.386719 4.308594 155.347656 4.34375 155.308594 4.382812 C 155.132812 4.570312 155.023438 4.824219 155.023438 5.101562 C 155.027344 5.675781 155.496094 6.144531 156.070312 6.144531 Z M 162.859375 7.753906 C 162.957031 7.894531 163.042969 8.03125 163.128906 8.167969 C 165.097656 11.40625 165.183594 16.363281 163.332031 19.953125 C 161.808594 22.894531 158.960938 24.796875 156.074219 24.796875 C 153.183594 24.796875 150.335938 22.894531 148.816406 19.953125 C 146.957031 16.363281 147.042969 11.40625 149.015625 8.167969 C 149.097656 8.03125 149.183594 7.894531 149.28125 7.753906 Z M 147.511719 3.511719 C 147.511719 2.976562 147.949219 2.539062 148.488281 2.539062 L 163.652344 2.539062 C 164.191406 2.539062 164.628906 2.976562 164.628906 3.511719 L 164.628906 6.578125 C 164.628906 7.117188 164.191406 7.550781 163.652344 7.550781 L 148.488281 7.550781 C 147.949219 7.550781 147.515625 7.113281 147.515625 6.578125 Z M 147.269531 14.03125 C 147.25 16.175781 147.738281 18.308594 148.632812 20.042969 C 149.421875 21.574219 150.574219 22.847656 151.964844 23.730469 C 153.246094 24.546875 154.707031 24.996094 156.070312 24.996094 C 157.429688 24.996094 158.890625 24.546875 160.171875 23.730469 C 161.5625 22.847656 162.714844 21.574219 163.503906 20.042969 C 164.402344 18.308594 164.886719 16.171875 164.867188 14.03125 C 164.851562 11.789062 164.308594 9.730469 163.296875 8.066406 C 163.234375 7.960938 163.167969 7.859375 163.097656 7.753906 L 163.648438 7.753906 C 164.296875 7.753906 164.824219 7.226562 164.824219 6.578125 L 164.824219 3.511719 C 164.828125 2.867188 164.300781 2.335938 163.652344 2.335938 L 148.488281 2.335938 C 147.839844 2.335938 147.3125 2.867188 147.3125 3.511719 L 147.3125 6.578125 C 147.3125 7.226562 147.839844 7.753906 148.488281 7.753906 L 149.039062 7.753906 C 148.96875 7.855469 148.902344 7.960938 148.84375 8.0625 C 147.832031 9.726562 147.285156 11.789062 147.269531 14.03125 " fill-opacity="1" fill-rule="nonzero"/></g><path stroke-linecap="butt" transform="matrix(-0.746681, 0, 0, -0.746681, 174.830834, 34.714259)" fill="none" stroke-linejoin="miter" d="M -0.00160407 0.50144 L 162.263269 0.50144 " stroke="#000000" stroke-width="1" stroke-opacity="1" stroke-miterlimit="4"/><path stroke-linecap="butt" transform="matrix(0, -0.746681, 0.746681, 0, 53.597067, 34.338297)" fill="none" stroke-linejoin="miter" d="M -0.00207121 0.49778 L 45.993117 0.49778 " stroke="#000000" stroke-width="1" stroke-opacity="1" stroke-miterlimit="4"/><path stroke-linecap="butt" transform="matrix(0, -0.746681, 0.746681, 0, 174.152113, 34.338297)" fill="none" stroke-linejoin="miter" d="M -0.00207121 0.502531 L 45.993117 0.502531 " stroke="#000000" stroke-width="1" stroke-opacity="1" stroke-miterlimit="4"/><g clip-path="url(#d0c81a85c3)"><path fill="#000000" d="M 211.140625 64.890625 L 211.140625 39.191406 L 228.117188 39.191406 L 228.117188 64.890625 Z M 211.140625 64.890625 " fill-opacity="1" fill-rule="nonzero"/></g><g clip-path="url(#84b5f22a2c)"><path fill="#fff9f9" d="M 211.734375 64.296875 L 211.734375 39.777344 L 227.527344 39.777344 L 227.527344 64.296875 Z M 211.734375 64.296875 " fill-opacity="1" fill-rule="nonzero"/></g><path fill="#000000" d="M 213.5 53.925781 C 213.761719 53.925781 213.980469 54.019531 214.164062 54.203125 C 214.347656 54.386719 214.441406 54.605469 214.441406 54.867188 C 214.441406 55.125 214.347656 55.347656 214.164062 55.53125 C 213.980469 55.714844 213.761719 55.808594 213.5 55.808594 C 213.242188 55.808594 213.019531 55.714844 212.835938 55.53125 C 212.652344 55.347656 212.558594 55.125 212.558594 54.867188 C 212.558594 54.605469 212.652344 54.386719 212.835938 54.203125 C 213.019531 54.019531 213.242188 53.925781 213.5 53.925781 Z M 213.5 53.925781 " fill-opacity="1" fill-rule="nonzero"/><path fill="#fff9f9" d="M 213.5 54.511719 C 213.597656 54.511719 213.683594 54.546875 213.75 54.617188 C 213.820312 54.683594 213.855469 54.769531 213.855469 54.867188 C 213.855469 54.964844 213.820312 55.046875 213.75 55.117188 C 213.683594 55.1875 213.597656 55.222656 213.5 55.222656 C 213.402344 55.222656 213.320312 55.1875 213.25 55.117188 C 213.179688 55.046875 213.144531 54.964844 213.144531 54.867188 C 213.144531 54.769531 213.179688 54.683594 213.25 54.617188 C 213.320312 54.546875 213.402344 54.511719 213.5 54.511719 Z M 213.5 54.511719 " fill-opacity="1" fill-rule="nonzero"/><path fill="#000000" d="M 213.5 48.621094 C 213.761719 48.621094 213.980469 48.714844 214.164062 48.898438 C 214.347656 49.082031 214.441406 49.304688 214.441406 49.5625 C 214.441406 49.824219 214.347656 50.042969 214.164062 50.226562 C 213.980469 50.410156 213.761719 50.503906 213.5 50.503906 C 213.242188 50.503906 213.019531 50.410156 212.835938 50.226562 C 212.652344 50.042969 212.558594 49.824219 212.558594 49.5625 C 212.558594 49.304688 212.652344 49.082031 212.835938 48.898438 C 213.019531 48.714844 213.242188 48.621094 213.5 48.621094 Z M 213.5 48.621094 " fill-opacity="1" fill-rule="nonzero"/><path fill="#fff9f9" d="M 213.5 49.207031 C 213.597656 49.207031 213.683594 49.242188 213.75 49.3125 C 213.820312 49.382812 213.855469 49.464844 213.855469 49.5625 C 213.855469 49.660156 213.820312 49.746094 213.75 49.8125 C 213.683594 49.882812 213.597656 49.917969 213.5 49.917969 C 213.402344 49.917969 213.320312 49.882812 213.25 49.8125 C 213.179688 49.746094 213.144531 49.660156 213.144531 49.5625 C 213.144531 49.464844 213.179688 49.382812 213.25 49.3125 C 213.320312 49.242188 213.402344 49.207031 213.5 49.207031 Z M 213.5 49.207031 " fill-opacity="1" fill-rule="nonzero"/><path fill="#000000" d="M 220.453125 43.320312 C 217.390625 43.320312 214.796875 46.972656 214.675781 51.6875 L 214.324219 51.6875 C 214.085938 51.449219 213.851562 51.332031 213.496094 51.332031 C 212.90625 51.332031 212.554688 51.804688 212.554688 52.273438 C 212.554688 52.746094 213.027344 53.210938 213.496094 53.210938 C 213.851562 53.210938 214.085938 53.09375 214.324219 52.859375 L 214.675781 52.859375 C 214.914062 57.339844 217.390625 60.875 220.453125 60.875 C 223.636719 60.875 226.230469 56.984375 226.230469 52.152344 C 226.230469 47.324219 223.636719 43.320312 220.453125 43.320312 Z M 220.453125 43.320312 " fill-opacity="1" fill-rule="nonzero"/><path fill="#fff9f9" d="M 225.640625 52.039062 C 225.640625 56.523438 223.28125 60.175781 220.453125 60.175781 C 217.742188 60.175781 215.503906 56.996094 215.269531 52.75 L 216.207031 52.75 C 216.5625 52.75 216.800781 52.511719 216.800781 52.160156 C 216.800781 51.804688 216.5625 51.566406 216.207031 51.566406 L 215.269531 51.566406 C 215.386719 47.324219 217.746094 43.785156 220.453125 43.785156 C 223.398438 43.90625 225.640625 47.558594 225.640625 52.039062 Z M 225.640625 52.039062 " fill-opacity="1" fill-rule="nonzero"/><g clip-path="url(#70fc9ac61f)"><path fill="#000000" d="M 211.140625 39.164062 L 211.140625 13.464844 L 228.117188 13.464844 L 228.117188 39.164062 Z M 211.140625 39.164062 " fill-opacity="1" fill-rule="nonzero"/></g><g clip-path="url(#0e9270fee8)"><path fill="#fff9f9" d="M 211.734375 38.570312 L 211.734375 14.050781 L 227.527344 14.050781 L 227.527344 38.570312 Z M 211.734375 38.570312 " fill-opacity="1" fill-rule="nonzero"/></g><path fill="#000000" d="M 213.5 28.199219 C 213.761719 28.199219 213.980469 28.292969 214.164062 28.476562 C 214.347656 28.660156 214.441406 28.878906 214.441406 29.140625 C 214.441406 29.398438 214.347656 29.621094 214.164062 29.804688 C 213.980469 29.988281 213.761719 30.082031 213.5 30.082031 C 213.242188 30.082031 213.019531 29.988281 212.835938 29.804688 C 212.652344 29.621094 212.558594 29.398438 212.558594 29.140625 C 212.558594 28.878906 212.652344 28.660156 212.835938 28.476562 C 213.019531 28.292969 213.242188 28.199219 213.5 28.199219 Z M 213.5 28.199219 " fill-opacity="1" fill-rule="nonzero"/><path fill="#fff9f9" d="M 213.5 28.785156 C 213.597656 28.785156 213.683594 28.820312 213.75 28.890625 C 213.820312 28.957031 213.855469 29.042969 213.855469 29.140625 C 213.855469 29.238281 213.820312 29.320312 213.75 29.390625 C 213.683594 29.460938 213.597656 29.496094 213.5 29.496094 C 213.402344 29.496094 213.320312 29.460938 213.25 29.390625 C 213.179688 29.320312 213.144531 29.238281 213.144531 29.140625 C 213.144531 29.042969 213.179688 28.957031 213.25 28.890625 C 213.320312 28.820312 213.402344 28.785156 213.5 28.785156 Z M 213.5 28.785156 " fill-opacity="1" fill-rule="nonzero"/><path fill="#000000" d="M 213.5 22.894531 C 213.761719 22.894531 213.980469 22.988281 214.164062 23.171875 C 214.347656 23.355469 214.441406 23.578125 214.441406 23.835938 C 214.441406 24.097656 214.347656 24.316406 214.164062 24.5 C 213.980469 24.683594 213.761719 24.777344 213.5 24.777344 C 213.242188 24.777344 213.019531 24.683594 212.835938 24.5 C 212.652344 24.316406 212.558594 24.097656 212.558594 23.835938 C 212.558594 23.578125 212.652344 23.355469 212.835938 23.171875 C 213.019531 22.988281 213.242188 22.894531 213.5 22.894531 Z M 213.5 22.894531 " fill-opacity="1" fill-rule="nonzero"/><path fill="#fff9f9" d="M 213.5 23.480469 C 213.597656 23.480469 213.683594 23.515625 213.75 23.585938 C 213.820312 23.65625 213.855469 23.738281 213.855469 23.835938 C 213.855469 23.933594 213.820312 24.019531 213.75 24.085938 C 213.683594 24.15625 213.597656 24.191406 213.5 24.191406 C 213.402344 24.191406 213.320312 24.15625 213.25 24.085938 C 213.179688 24.019531 213.144531 23.933594 213.144531 23.835938 C 213.144531 23.738281 213.179688 23.65625 213.25 23.585938 C 213.320312 23.515625 213.402344 23.480469 213.5 23.480469 Z M 213.5 23.480469 " fill-opacity="1" fill-rule="nonzero"/><path fill="#000000" d="M 220.453125 17.59375 C 217.390625 17.59375 214.796875 21.246094 214.675781 25.960938 L 214.324219 25.960938 C 214.085938 25.722656 213.851562 25.605469 213.496094 25.605469 C 212.90625 25.605469 212.554688 26.078125 212.554688 26.546875 C 212.554688 27.019531 213.027344 27.484375 213.496094 27.484375 C 213.851562 27.484375 214.085938 27.367188 214.324219 27.132812 L 214.675781 27.132812 C 214.914062 31.613281 217.390625 35.148438 220.453125 35.148438 C 223.636719 35.148438 226.230469 31.257812 226.230469 26.425781 C 226.230469 21.597656 223.636719 17.59375 220.453125 17.59375 Z M 220.453125 17.59375 " fill-opacity="1" fill-rule="nonzero"/><path fill="#fff9f9" d="M 225.640625 26.3125 C 225.640625 30.796875 223.28125 34.449219 220.453125 34.449219 C 217.742188 34.449219 215.503906 31.269531 215.269531 27.023438 L 216.207031 27.023438 C 216.5625 27.023438 216.800781 26.785156 216.800781 26.433594 C 216.800781 26.078125 216.5625 25.839844 216.207031 25.839844 L 215.269531 25.839844 C 215.386719 21.597656 217.746094 18.058594 220.453125 18.058594 C 223.398438 18.179688 225.640625 21.832031 225.640625 26.3125 Z M 225.640625 26.3125 " fill-opacity="1" fill-rule="nonzero"/></svg>